<mxfile host="app.diagrams.net" modified="2023-08-31T07:18:37.516Z" agent="Mozilla/5.0 (Macintosh; Intel Mac OS X 10_15_7) AppleWebKit/605.1.15 (KHTML, like Gecko) Version/15.5 Safari/605.1.15" version="21.7.1" etag="ojPOaRZUFEiyvnXrBmI2" type="github">
  <diagram name="Page-1" id="8gMFKK3R2ZeON6QerMfF">
    <mxGraphModel>
      <root>
        <mxCell id="0" />
        <mxCell id="1" parent="0" />
      </root>
    </mxGraphModel>
  </diagram>
</mxfile>
